<svg width="19" height="19" viewBox="0 0 19 19" fill="none" xmlns="http://www.w3.org/2000/svg">
<path d="M0.832031 4.16659C0.832031 3.28253 1.18322 2.43468 1.80834 1.80956C2.43346 1.18444 3.28131 0.833252 4.16536 0.833252H14.1654C15.0494 0.833252 15.8973 1.18444 16.5224 1.80956C17.1475 2.43468 17.4987 3.28253 17.4987 4.16659V14.1666C17.4987 15.0506 17.1475 15.8985 16.5224 16.5236C15.8973 17.1487 15.0494 17.4999 14.1654 17.4999H4.16536C3.28131 17.4999 2.43346 17.1487 1.80834 16.5236C1.18322 15.8985 0.832031 15.0506 0.832031 14.1666V4.16659Z" stroke="#070A1C" style="stroke:#070A1C;stroke:color(display-p3 0.0275 0.0392 0.1098);stroke-opacity:1;" stroke-width="1.66667" stroke-linecap="round" stroke-linejoin="round"/>
<path d="M6.2474 8.33317C7.39799 8.33317 8.33073 7.40043 8.33073 6.24984C8.33073 5.09924 7.39799 4.1665 6.2474 4.1665C5.0968 4.1665 4.16406 5.09924 4.16406 6.24984C4.16406 7.40043 5.0968 8.33317 6.2474 8.33317Z" stroke="#070A1C" style="stroke:#070A1C;stroke:color(display-p3 0.0275 0.0392 0.1098);stroke-opacity:1;" stroke-width="1.66667" stroke-linecap="round" stroke-linejoin="round"/>
<path d="M11.2691 9.68409L4.16406 17.4999H14.2749C15.1296 17.4999 15.9492 17.1604 16.5535 16.5561C17.1579 15.9517 17.4974 15.1321 17.4974 14.2774V14.1666C17.4974 13.7783 17.3516 13.6291 17.0891 13.3416L13.7307 9.67909C13.5742 9.50835 13.3838 9.37211 13.1717 9.27907C12.9596 9.18602 12.7304 9.1382 12.4988 9.13868C12.2672 9.13915 12.0382 9.18789 11.8265 9.2818C11.6147 9.37571 11.4249 9.51272 11.2691 9.68409Z" stroke="#070A1C" style="stroke:#070A1C;stroke:color(display-p3 0.0275 0.0392 0.1098);stroke-opacity:1;" stroke-width="1.66667" stroke-linecap="round" stroke-linejoin="round"/>
</svg>
