<svg width="40" height="40" viewBox="0 0 40 40" fill="none" xmlns="http://www.w3.org/2000/svg">
<rect x="0.5" y="0.5" width="39" height="39" rx="19.5" stroke="#543C52" style="stroke:#543C52;stroke:color(display-p3 0.3294 0.2353 0.3216);stroke-opacity:1;"/>
<path d="M11.666 15.0001C11.666 14.116 12.0172 13.2682 12.6423 12.6431C13.2674 12.0179 14.1153 11.6667 14.9993 11.6667H24.9993C25.8834 11.6667 26.7312 12.0179 27.3564 12.6431C27.9815 13.2682 28.3327 14.116 28.3327 15.0001V25.0001C28.3327 25.8841 27.9815 26.732 27.3564 27.3571C26.7312 27.9822 25.8834 28.3334 24.9993 28.3334H14.9993C14.1153 28.3334 13.2674 27.9822 12.6423 27.3571C12.0172 26.732 11.666 25.8841 11.666 25.0001V15.0001Z" stroke="#543C52" style="stroke:#543C52;stroke:color(display-p3 0.3294 0.2353 0.3216);stroke-opacity:1;" stroke-width="1.66667" stroke-linecap="round" stroke-linejoin="round"/>
<path d="M17.0824 19.1667C18.2329 19.1667 19.1657 18.2339 19.1657 17.0833C19.1657 15.9327 18.2329 15 17.0824 15C15.9318 15 14.999 15.9327 14.999 17.0833C14.999 18.2339 15.9318 19.1667 17.0824 19.1667Z" stroke="#543C52" style="stroke:#543C52;stroke:color(display-p3 0.3294 0.2353 0.3216);stroke-opacity:1;" stroke-width="1.66667" stroke-linecap="round" stroke-linejoin="round"/>
<path d="M22.104 20.5176L14.999 28.3334H25.1099C25.9645 28.3334 26.7842 27.9939 27.3885 27.3896C27.9928 26.7852 28.3324 25.9656 28.3324 25.1109V25.0001C28.3324 24.6118 28.1865 24.4626 27.924 24.1751L24.5657 20.5126C24.4092 20.3418 24.2188 20.2056 24.0067 20.1126C23.7946 20.0195 23.5654 19.9717 23.3338 19.9722C23.1021 19.9726 22.8731 20.0214 22.6614 20.1153C22.4497 20.2092 22.2598 20.3462 22.104 20.5176Z" stroke="#543C52" style="stroke:#543C52;stroke:color(display-p3 0.3294 0.2353 0.3216);stroke-opacity:1;" stroke-width="1.66667" stroke-linecap="round" stroke-linejoin="round"/>
</svg>
