<svg width="24" height="24" viewBox="0 0 24 24" fill="none" xmlns="http://www.w3.org/2000/svg">
<rect x="1" y="1" width="22" height="22" rx="11" fill="white" style="fill:white;fill-opacity:1;"/>
<rect x="1" y="1" width="22" height="22" rx="11" stroke="#543C52" style="stroke:#543C52;stroke:color(display-p3 0.3294 0.2353 0.3216);stroke-opacity:1;" stroke-width="2"/>
<g clip-path="url(#clip0_11049_5888)">
<path d="M14.8684 16.0145L12 13.1461L9.13163 16.0145C8.97949 16.1666 8.77313 16.2521 8.55796 16.2521C8.34279 16.2521 8.13643 16.1666 7.98429 16.0145C7.83214 15.8623 7.74666 15.656 7.74666 15.4408C7.74666 15.2256 7.83214 15.0193 7.98429 14.8671L10.8527 11.9988L7.98429 9.13041C7.83214 8.97826 7.74666 8.7719 7.74666 8.55673C7.74666 8.34156 7.83214 8.13521 7.98429 7.98306C8.13643 7.83091 8.34279 7.74544 8.55796 7.74544C8.77313 7.74544 8.97949 7.83091 9.13163 7.98306L12 10.8514L14.8684 7.98306C15.0205 7.83091 15.2269 7.74544 15.442 7.74544C15.6572 7.74544 15.8636 7.83091 16.0157 7.98306C16.1679 8.13521 16.2533 8.34156 16.2533 8.55673C16.2533 8.7719 16.1679 8.97826 16.0157 9.13041L13.1473 11.9988L16.0157 14.8671C16.1679 15.0193 16.2533 15.2256 16.2533 15.4408C16.2533 15.656 16.1679 15.8623 16.0157 16.0145C15.8636 16.1666 15.6572 16.2521 15.442 16.2521C15.2269 16.2521 15.0205 16.1666 14.8684 16.0145Z" fill="#543C52" style="fill:#543C52;fill:color(display-p3 0.3294 0.2353 0.3216);fill-opacity:1;"/>
</g>
<defs>
<clipPath id="clip0_11049_5888">
<rect width="15" height="15" fill="white" style="fill:white;fill-opacity:1;" transform="translate(4.5 4.5)"/>
</clipPath>
</defs>
</svg>
