<svg width="20" height="20" viewBox="0 0 20 20" fill="none" xmlns="http://www.w3.org/2000/svg">
<circle cx="2.34996" cy="2.34996" r="2.34996" transform="matrix(-1 0 0 1 12.3066 7.65015)" stroke="#070A1C" style="stroke:#070A1C;stroke:color(display-p3 0.0275 0.0392 0.1098);stroke-opacity:1;" stroke-width="1.8"/>
<path d="M9.95654 2.16699V1.26699H9.9565L9.95654 2.16699ZM13.4819 4.46777L13.0319 5.24718L13.0319 5.2472L13.4819 4.46777ZM15.4399 9.2168L14.5399 9.21677V9.2168H15.4399ZM13.4819 15.5322L13.0319 14.7528L13.0319 14.7528L13.4819 15.5322ZM9.95654 17.833L9.9565 18.733H9.95654V17.833ZM6.43213 15.5322L6.88218 14.7528L6.88213 14.7528L6.43213 15.5322ZM3.68994 10H4.58994L4.58994 9.99993L3.68994 10ZM6.43213 4.46777L6.88213 5.2472L6.88219 5.24716L6.43213 4.46777ZM7.51301 3.08081L6.64751 2.834L7.51301 3.08081ZM2.94094 8.28125L2.32791 8.94018L2.94094 8.28125ZM4.83992 15.2564L4.67851 14.371L4.83992 15.2564ZM8.14357 17.6219L7.93592 18.4976L8.14357 17.6219ZM12.3994 16.9191L11.5341 16.6716L12.3994 16.9191ZM11.7684 17.6219L11.976 18.4976L11.7684 17.6219ZM15.0734 15.2565L15.2347 14.3711L15.0734 15.2565ZM16.7683 6.13025L17.5501 5.68441L16.7683 6.13025ZM2.94074 11.718L2.32791 11.0588L2.94074 11.718ZM15.0734 4.74274L14.9115 3.85743L15.0734 4.74274ZM15.9815 4.99593L15.2898 5.57172L15.9815 4.99593ZM3.93165 4.99627L3.23948 4.42104L3.93165 4.99627ZM4.83989 4.7429L4.67793 5.62821L4.83989 4.7429ZM16.7557 11.3248L16.3597 12.133L16.7557 11.3248ZM17.4008 12.4427L18.2559 12.7234L17.4008 12.4427ZM12.3994 3.0809L13.2647 2.83333L12.3994 3.0809ZM9.95654 2.16699V3.06699C10.5094 3.06699 11.0464 3.13192 11.5607 3.25385L11.7683 2.37813L11.976 1.5024C11.3272 1.34858 10.6508 1.26699 9.95654 1.26699V2.16699ZM12.3994 3.0809L11.5341 3.32847C11.7572 4.10825 12.2724 4.80862 13.0319 5.24718L13.4819 4.46777L13.932 3.68837C13.5934 3.49289 13.3648 3.18314 13.2647 2.83333L12.3994 3.0809ZM13.4819 4.46777L13.0319 5.2472C13.7258 5.6478 14.5066 5.76133 15.2353 5.62806L15.0734 4.74274L14.9115 3.85743C14.5849 3.91715 14.2404 3.86644 13.9319 3.68835L13.4819 4.46777ZM15.9815 4.99593L15.2898 5.57172C15.5504 5.88483 15.7839 6.22076 15.9865 6.57609L16.7683 6.13025L17.5501 5.68441C17.2946 5.23635 17.0007 4.81355 16.6732 4.42013L15.9815 4.99593ZM16.3584 7.35562L15.8102 6.64186C15.04 7.23346 14.54 8.16608 14.5399 9.21677L15.4399 9.2168L16.3399 9.21682C16.34 8.74995 16.5601 8.33553 16.9067 8.06938L16.3584 7.35562ZM15.4399 9.2168H14.5399C14.5399 10.5004 15.2843 11.6061 16.3597 12.133L16.7557 11.3248L17.1516 10.5166C16.6686 10.2799 16.3399 9.78643 16.3399 9.2168H15.4399ZM17.4008 12.4427L16.5457 12.1619C16.2713 12.9978 15.8413 13.7641 15.2895 14.4275L15.9814 15.003L16.6732 15.5786C17.3669 14.7448 17.9093 13.7792 18.2559 12.7234L17.4008 12.4427ZM15.0734 15.2565L15.2347 14.3711C14.5058 14.2383 13.7253 14.3525 13.0319 14.7528L13.4819 15.5322L13.9319 16.3116C14.2407 16.1334 14.5856 16.0824 14.912 16.1419L15.0734 15.2565ZM13.4819 15.5322L13.0319 14.7528C12.2723 15.1914 11.7572 15.8918 11.5341 16.6716L12.3994 16.9191L13.2647 17.1667C13.3648 16.8168 13.5934 16.5071 13.9319 16.3116L13.4819 15.5322ZM11.7684 17.6219L11.5608 16.7462C11.0465 16.8681 10.5095 16.933 9.95654 16.933V17.833V18.733C10.6509 18.733 11.3272 18.6514 11.976 18.4976L11.7684 17.6219ZM9.95654 17.833L9.95658 16.933C9.40297 16.933 8.86566 16.8682 8.35122 16.7462L8.14357 17.6219L7.93592 18.4976C8.58528 18.6516 9.2619 18.733 9.9565 18.733L9.95654 17.833ZM7.513 16.9192L8.3785 16.6724C8.15623 15.893 7.64249 15.1919 6.88218 14.7528L6.43213 15.5322L5.98208 16.3116C6.31979 16.5066 6.54764 16.8158 6.64751 17.166L7.513 16.9192ZM6.43213 15.5322L6.88213 14.7528C6.18868 14.3524 5.40773 14.238 4.67851 14.371L4.83992 15.2564L5.00133 16.1418C5.32791 16.0822 5.67313 16.1332 5.98213 16.3116L6.43213 15.5322ZM3.93169 15.0028L4.62387 14.4275C4.12557 13.8279 3.72717 13.1437 3.45277 12.3996L2.60836 12.711L1.76396 13.0224C2.11018 13.9612 2.61244 14.8234 3.23952 15.578L3.93169 15.0028ZM2.94074 11.718L3.55356 12.3771C4.1894 11.7859 4.58994 10.9399 4.58994 10H3.68994H2.78994C2.78994 10.4182 2.61358 10.7932 2.32791 11.0588L2.94074 11.718ZM3.68994 10L4.58994 9.99993C4.58987 9.06042 4.18985 8.21389 3.55397 7.62231L2.94094 8.28125L2.32791 8.94018C2.61344 9.20581 2.78991 9.58141 2.78994 10.0001L3.68994 10ZM2.60853 7.28775L3.45291 7.59924C3.72739 6.8552 4.12568 6.17091 4.62382 5.57151L3.93165 4.99627L3.23948 4.42104C2.61242 5.17555 2.11036 6.03777 1.76415 6.97626L2.60853 7.28775ZM4.83989 4.7429L4.67793 5.62821C5.40701 5.76159 6.18814 5.64787 6.88213 5.2472L6.43213 4.46777L5.98213 3.68835C5.67344 3.86657 5.32854 3.91736 5.00184 3.8576L4.83989 4.7429ZM6.43213 4.46777L6.88219 5.24716C7.64246 4.80814 8.15622 4.10708 8.3785 3.32763L7.51301 3.08081L6.64751 2.834C6.54766 3.18416 6.31981 3.49335 5.98207 3.68839L6.43213 4.46777ZM8.1436 2.37811L8.35124 3.25383C8.86569 3.13185 9.40302 3.06702 9.95658 3.06699L9.95654 2.16699L9.9565 1.26699C9.26194 1.26702 8.58529 1.34842 7.93597 1.50239L8.1436 2.37811ZM7.51301 3.08081L8.3785 3.32763C8.38722 3.29705 8.39766 3.27095 8.40801 3.25042C8.41843 3.22976 8.42674 3.21872 8.42983 3.21504C8.43271 3.2116 8.42822 3.21788 8.41383 3.22733C8.39841 3.23746 8.37675 3.24778 8.35124 3.25383L8.1436 2.37811L7.93597 1.50239C7.1558 1.68737 6.78326 2.35797 6.64751 2.834L7.51301 3.08081ZM2.94094 8.28125L3.55397 7.62231C3.52744 7.59762 3.50568 7.57235 3.48946 7.54929C3.47311 7.52604 3.46574 7.50984 3.46319 7.5031C3.46079 7.49673 3.46463 7.50411 3.46535 7.52385C3.46614 7.5454 3.46277 7.5725 3.45291 7.59924L2.60853 7.28775L1.76415 6.97626C1.44995 7.828 1.9308 8.57073 2.32791 8.94018L2.94094 8.28125ZM4.83992 15.2564L4.67851 14.371C4.64725 14.3767 4.61926 14.3788 4.59629 14.3786C4.57317 14.3784 4.55957 14.3759 4.55486 14.3747C4.55044 14.3737 4.55796 14.3749 4.57269 14.3835C4.58846 14.3927 4.60721 14.4075 4.62387 14.4275L3.93169 15.0028L3.23952 15.578C3.75077 16.1932 4.51495 16.2304 5.00133 16.1418L4.83992 15.2564ZM8.14357 17.6219L8.35122 16.7462C8.37672 16.7522 8.39839 16.7625 8.41381 16.7727C8.4282 16.7821 8.43269 16.7884 8.42981 16.785C8.42673 16.7813 8.41841 16.7702 8.408 16.7496C8.39765 16.7291 8.38722 16.703 8.3785 16.6724L7.513 16.9192L6.64751 17.166C6.78326 17.6421 7.1558 18.3126 7.93592 18.4976L8.14357 17.6219ZM12.3994 16.9191L11.5341 16.6716C11.5253 16.7023 11.5148 16.7285 11.5044 16.7491C11.4939 16.7699 11.4856 16.781 11.4824 16.7848C11.4795 16.7883 11.4839 16.782 11.4982 16.7726C11.5136 16.7625 11.5353 16.7522 11.5608 16.7462L11.7684 17.6219L11.976 18.4976C12.7561 18.3126 13.1287 17.6421 13.2647 17.1667L12.3994 16.9191ZM15.9814 15.003L15.2895 14.4275C15.3061 14.4075 15.3248 14.3928 15.3405 14.3836C15.3552 14.375 15.3627 14.3738 15.3582 14.3749C15.3535 14.376 15.3399 14.3786 15.3168 14.3788C15.2939 14.379 15.2659 14.3768 15.2347 14.3711L15.0734 15.2565L14.912 16.1419C15.3985 16.2306 16.1621 16.1931 16.6732 15.5786L15.9814 15.003ZM16.7683 6.13025L15.9865 6.57609C15.9697 6.5467 15.9607 6.51125 15.9599 6.48094C15.9593 6.45479 15.9649 6.44811 15.9589 6.46351C15.9528 6.47921 15.9384 6.50753 15.9104 6.54314C15.8828 6.57835 15.8481 6.61273 15.8102 6.64186L16.3584 7.35562L16.9067 8.06938C17.2068 7.83885 17.4827 7.51102 17.6362 7.11672C17.7949 6.70917 17.8345 6.18309 17.5501 5.68441L16.7683 6.13025ZM2.60836 12.711L3.45277 12.3996C3.46263 12.4264 3.46601 12.4535 3.46521 12.475C3.46449 12.4948 3.46064 12.5022 3.46303 12.4959C3.46555 12.4892 3.47289 12.4731 3.4892 12.4499C3.50537 12.4269 3.52708 12.4017 3.55356 12.3771L2.94074 11.718L2.32791 11.0588C1.93055 11.4283 1.44991 12.1709 1.76396 13.0224L2.60836 12.711ZM15.0734 4.74274L15.2353 5.62806C15.2664 5.62236 15.2943 5.62017 15.3172 5.62036C15.3403 5.62055 15.3538 5.6231 15.3585 5.62424C15.3629 5.62531 15.3554 5.62411 15.3408 5.61552C15.3251 5.60633 15.3064 5.59168 15.2898 5.57172L15.9815 4.99593L16.6732 4.42013C16.1619 3.80588 15.3983 3.76839 14.9115 3.85743L15.0734 4.74274ZM3.93165 4.99627L4.62382 5.57151C4.60715 5.59157 4.58839 5.60631 4.57258 5.61556C4.55783 5.62421 4.55027 5.62543 4.55464 5.62437C4.55931 5.62324 4.57285 5.62069 4.59591 5.6205C4.61882 5.62031 4.64675 5.62251 4.67793 5.62821L4.83989 4.7429L5.00184 3.8576C4.51518 3.76857 3.75082 3.80575 3.23948 4.42104L3.93165 4.99627ZM16.7557 11.3248L16.3597 12.133C16.4029 12.1542 16.4438 12.181 16.478 12.2101C16.5125 12.2395 16.5322 12.2643 16.5413 12.2784C16.5502 12.2922 16.5433 12.2867 16.5387 12.2608C16.5333 12.2308 16.5351 12.1941 16.5457 12.1619L17.4008 12.4427L18.2559 12.7234C18.4349 12.1783 18.2912 11.6712 18.0546 11.3038C17.8257 10.9484 17.4906 10.6826 17.1516 10.5166L16.7557 11.3248ZM11.7683 2.37813L11.5607 3.25385C11.5352 3.24781 11.5136 3.23749 11.4982 3.2274C11.4839 3.21797 11.4794 3.21174 11.4824 3.21526C11.4855 3.21901 11.4939 3.23015 11.5044 3.25091C11.5148 3.27155 11.5253 3.29776 11.5341 3.32847L12.3994 3.0809L13.2647 2.83333C13.1286 2.35794 12.7561 1.68736 11.976 1.5024L11.7683 2.37813Z" fill="#070A1C" style="fill:#070A1C;fill:color(display-p3 0.0275 0.0392 0.1098);fill-opacity:1;"/>
</svg>
